<svg xmlns="http://www.w3.org/2000/svg" width="230" height="230" viewBox="0 0 230 230"><defs><style>.a{fill:#fff;}</style></defs><title>stamp</title><path class="a" d="M230,225v-7.69232a5,5,0,0,1,0-10v-7.69232a5,5,0,0,1,0-10V181.923a5,5,0,0,1,0-10v-7.69226a5,5,0,0,1,0-10v-7.69232a5,5,0,0,1,0-10v-7.69232a5,5,0,0,1,0-10v-7.69232a5,5,0,0,1,0-10V93.46155a5,5,0,0,1,0-10V75.76923a5,5,0,0,1,0-10V58.0769a5,5,0,0,1,0-10V40.38458a5,5,0,1,1,0-10V22.69232a5,5,0,0,1,0-10V5a5,5,0,0,1-5-5h-7.69232a5,5,0,0,1-5,5,5,5,0,0,1-5-5h-7.69232a5,5,0,0,1-5,5,5,5,0,0,1-5-5H181.9231a5,5,0,0,1-5,5,5,5,0,0,1-5-5h-7.69232a5,5,0,0,1-5,5,5,5,0,0,1-5-5h-7.69232a5,5,0,0,1-5,5,5,5,0,0,1-5-5h-7.69232a5,5,0,0,1-5,5,5,5,0,0,1-5-5h-7.69226a5,5,0,0,1-5,5,5,5,0,0,1-5-5H93.46155a5,5,0,0,1-5,5,5,5,0,0,1-5-5H75.76923a5,5,0,0,1-5,5,5,5,0,0,1-5-5H58.0769a5,5,0,0,1-5,5,5,5,0,0,1-5-5H40.38464a5,5,0,0,1-5,5,5,5,0,0,1-5-5H22.69232a5,5,0,0,1-5,5,5,5,0,0,1-5-5H5A5,5,0,0,1,0,5v7.69232a5,5,0,0,1,5,5,5,5,0,0,1-5,5v7.69226a5,5,0,0,1,5,5,5,5,0,0,1-5,5V48.0769a5,5,0,0,1,5,5,5,5,0,0,1-5,5v7.69232a5,5,0,0,1,5,5,5,5,0,0,1-5,5v7.69232a5,5,0,0,1,5,5,5,5,0,0,1-5,5v7.69226a5,5,0,0,1,5,5,5,5,0,0,1-5,5v7.69232a5,5,0,0,1,5,5,5,5,0,0,1-5,5v7.69232a5,5,0,0,1,5,5,5,5,0,0,1-5,5v7.69232a5,5,0,0,1,5,5,5,5,0,0,1-5,5V171.923a5,5,0,0,1,5,5,5,5,0,0,1-5,5v7.69232a5,5,0,0,1,5,5,5,5,0,0,1-5,5v7.69232a5,5,0,0,1,5,5,5,5,0,0,1-5,5V225a5,5,0,0,1,5,5h7.69232a5,5,0,0,1,10,0h7.69232a5,5,0,0,1,10,0H48.0769a5,5,0,0,1,10,0h7.69232a5,5,0,0,1,10,0h7.69232a5,5,0,0,1,10,0h7.69232a5,5,0,0,1,10,0h7.69226a5,5,0,1,1,10,0h7.69232a5,5,0,0,1,10,0h7.69232a5,5,0,0,1,10,0h7.69232a5,5,0,0,1,10,0h7.69226a5,5,0,0,1,10,0h7.69232a5,5,0,0,1,10,0H225A5,5,0,0,1,230,225Z"/></svg>